<?xml version="1.0" encoding="UTF-8"?>
<svg version="1.1" xmlns="http://www.w3.org/2000/svg" width="706" height="196">
<path d="M0 0 C1.48831242 0.00667405 2.97660807 0.01863442 4.46484375 0.03515625 C5.22345703 0.03966797 5.98207031 0.04417969 6.76367188 0.04882812 C8.64326246 0.06064945 10.52281274 0.07858547 12.40234375 0.09765625 C12.90161377 1.12648926 13.40088379 2.15532227 13.9152832 3.21533203 C15.77674249 7.05095465 17.63866873 10.88635045 19.50073242 14.72167969 C20.30489533 16.37819383 21.10893345 18.03476855 21.9128418 19.69140625 C23.07177044 22.07958861 24.23115521 24.46754908 25.390625 26.85546875 C25.74699539 27.59008331 26.10336578 28.32469788 26.47053528 29.08157349 C26.81066147 29.78184662 27.15078766 30.48211975 27.5012207 31.20361328 C27.98353149 32.21474686 27.98353149 32.21474686 28.47558594 33.24630737 C29.46845014 35.29630964 29.46845014 35.29630964 31.13208008 37.91503906 C33.0300313 42.67031336 32.78412783 47.18993506 32.73828125 52.26171875 C32.75078622 54.45703425 32.763823 56.65234677 32.77734375 58.84765625 C32.78128398 62.2953533 32.77725883 65.74275991 32.76269531 69.19042969 C32.75414696 72.52713521 32.77576172 75.86262074 32.80078125 79.19921875 C32.78743744 80.23156647 32.77409363 81.26391418 32.76034546 82.32754517 C32.78814589 85.0108628 32.84617601 87.47193043 33.40234375 90.09765625 C35.85098044 92.28679667 35.85098044 92.28679667 38.40234375 94.09765625 C38.84945757 96.98610766 38.99019094 99.27042692 38.890625 102.14453125 C38.88355026 102.91573303 38.87647552 103.68693481 38.8691864 104.48150635 C38.84125953 106.93788837 38.77853114 109.39196676 38.71484375 111.84765625 C38.68975836 113.51559201 38.6669456 115.18356361 38.64648438 116.8515625 C38.59143937 120.93447752 38.50518432 125.01567674 38.40234375 129.09765625 C35.54143606 127.76661619 33.17974573 126.26210268 30.73046875 124.27734375 C30.06660156 123.74238281 29.40273438 123.20742187 28.71875 122.65625 C28.03683594 122.10066406 27.35492188 121.54507813 26.65234375 120.97265625 C25.95496094 120.40933594 25.25757813 119.84601563 24.5390625 119.265625 C22.8241241 117.87957889 21.11201975 116.49018417 19.40234375 115.09765625 C16.92734375 116.08765625 16.92734375 116.08765625 14.40234375 117.09765625 C15.09400163 122.51564297 16.16033623 127.77993475 17.40234375 133.09765625 C12.73567708 130.43098958 8.06901042 127.76432292 3.40234375 125.09765625 C-0.55765625 127.73765625 -4.51765625 130.37765625 -8.59765625 133.09765625 C-9.74979925 129.64122724 -9.40640962 128.94472625 -8.16015625 125.66015625 C-6.93114583 122.40300308 -6.59765625 120.71380202 -6.59765625 117.09765625 C-8.24765625 116.43765625 -9.89765625 115.77765625 -11.59765625 115.09765625 C-12.10216309 115.52175781 -12.60666992 115.94585937 -13.12646484 116.3828125 C-15.40432726 118.29283765 -17.68837537 120.19531301 -19.97265625 122.09765625 C-20.76671875 122.76539063 -21.56078125 123.433125 -22.37890625 124.12109375 C-23.13945312 124.75273437 -23.9 125.384375 -24.68359375 126.03515625 C-25.38532715 126.62167969 -26.08706055 127.20820313 -26.81005859 127.8125 C-28.59765625 129.09765625 -28.59765625 129.09765625 -30.59765625 129.09765625 C-30.72157501 124.34718273 -30.81214186 119.59765664 -30.87231445 114.84594727 C-30.89740584 113.23087164 -30.93148751 111.61590899 -30.97485352 110.0012207 C-31.03574911 107.67500919 -31.06391749 105.35030266 -31.0859375 103.0234375 C-31.11174393 102.30553543 -31.13755035 101.58763336 -31.16413879 100.84797668 C-31.1652832 98.78637695 -31.1652832 98.78637695 -30.59765625 95.09765625 C-29.3451709 93.91816406 -29.3451709 93.91816406 -28.06738281 92.71484375 C-25.3300424 89.81406387 -25.24857793 89.4247911 -25.25561523 85.66674805 C-25.34823677 83.87563843 -25.46243438 82.08556408 -25.59375 80.296875 C-25.6755356 78.28477441 -25.75009856 76.27237044 -25.81835938 74.25976562 C-25.85711182 73.20297607 -25.89586426 72.14618652 -25.93579102 71.05737305 C-26.76753038 43.66719437 -19.2752557 23.92947761 -4.59765625 1.09765625 C-3.59765625 0.09765625 -3.59765625 0.09765625 0 0 Z M3.40234375 21.09765625 C2.06276454 23.88636802 0.7317594 26.67908687 -0.59765625 29.47265625 C-0.97921875 30.26671875 -1.36078125 31.06078125 -1.75390625 31.87890625 C-2.11484375 32.63945313 -2.47578125 33.4 -2.84765625 34.18359375 C-3.1828125 34.88532715 -3.51796875 35.58706055 -3.86328125 36.31005859 C-4.72432289 38.08389073 -4.72432289 38.08389073 -4.59765625 40.09765625 C1.01234375 40.09765625 6.62234375 40.09765625 12.40234375 40.09765625 C11.47275772 35.44972609 9.99019173 31.91978573 7.83984375 27.78515625 C7.51048828 27.13998047 7.18113281 26.49480469 6.84179688 25.83007812 C6.0341012 24.24980397 5.21896762 22.6733352 4.40234375 21.09765625 C4.07234375 21.09765625 3.74234375 21.09765625 3.40234375 21.09765625 Z M-5.59765625 55.09765625 C-5.59765625 72.58765625 -5.59765625 90.07765625 -5.59765625 108.09765625 C-3.12265625 107.60265625 -3.12265625 107.60265625 -0.59765625 107.09765625 C-0.32050781 106.24300781 -0.04335937 105.38835937 0.2421875 104.5078125 C0.60441406 103.40308594 0.96664062 102.29835937 1.33984375 101.16015625 C1.69949219 100.05800781 2.05914062 98.95585938 2.4296875 97.8203125 C3.40234375 95.09765625 3.40234375 95.09765625 4.40234375 94.09765625 C6.05234375 98.71765625 7.70234375 103.33765625 9.40234375 108.09765625 C11.05234375 108.09765625 12.70234375 108.09765625 14.40234375 108.09765625 C14.40234375 90.60765625 14.40234375 73.11765625 14.40234375 55.09765625 C7.80234375 55.09765625 1.20234375 55.09765625 -5.59765625 55.09765625 Z " fill="#000000" transform="translate(239.59765625,24.90234375)"/>
<path d="M0 0 C45.77804252 0 45.77804252 0 53.59765625 6.51953125 C58.4627882 11.6557012 59.28389192 16.48694428 59.5 23.5 C59.29134357 30.4969455 58.45191117 35.58176601 53.3984375 40.5859375 C51.98974109 41.79434532 50.50100089 42.90836299 49 44 C50.33464376 47.54309548 51.90844902 50.74590547 53.8203125 54.01171875 C54.35527344 54.93404297 54.89023437 55.85636719 55.44140625 56.80664062 C56.57089609 58.73935236 57.70111355 60.67163905 58.83203125 62.60351562 C59.36441406 63.52197266 59.89679688 64.44042969 60.4453125 65.38671875 C60.93531738 66.22420654 61.42532227 67.06169434 61.93017578 67.92456055 C63 70 63 70 63 72 C55.41 72 47.82 72 40 72 C37.99491947 68.37772653 35.99574934 64.75240928 34 61.125 C33.42765625 60.09246094 32.8553125 59.05992188 32.265625 57.99609375 C31.72421875 57.00996094 31.1828125 56.02382812 30.625 55.0078125 C30.12226563 54.09660645 29.61953125 53.18540039 29.1015625 52.24658203 C28 50 28 50 28 48 C25.69 48 23.38 48 21 48 C21 56.25 21 64.5 21 73 C14.07 73 7.14 73 0 73 C0 48.91 0 24.82 0 0 Z M21 16 C21 21.28 21 26.56 21 32 C29.60850809 32.7890697 29.60850809 32.7890697 37.3125 29.875 C39.29284835 26.50107319 39.65454929 24.84547708 39 21 C37.22015595 17.8640843 36.47691793 17.15897264 33 16 C28.99616868 15.86600297 25.0072645 15.95691113 21 16 Z " fill="#000000" transform="translate(298,56)"/>
<path d="M0 0 C6.93 0 13.86 0 21 0 C21 8.58 21 17.16 21 26 C27.93 26 34.86 26 42 26 C42 17.42 42 8.84 42 0 C48.93 0 55.86 0 63 0 C63 23.76 63 47.52 63 72 C56.07 72 49.14 72 42 72 C42 62.76 42 53.52 42 44 C35.07 44 28.14 44 21 44 C21 53.24 21 62.48 21 72 C14.07 72 7.14 72 0 72 C0 48.24 0 24.48 0 0 Z " fill="#000000" transform="translate(455,56)"/>
<path d="M0 0 C0.78133301 0.00281982 1.56266602 0.00563965 2.36767578 0.00854492 C11.1084606 0.25029601 18.39656504 3.0650667 25.25 8.5 C24.66827275 12.4520518 22.69842259 14.72095053 20.1875 17.75 C19.45402344 18.64203125 18.72054687 19.5340625 17.96484375 20.453125 C17.39894531 21.12859375 16.83304687 21.8040625 16.25 22.5 C10.5390625 20.640625 10.5390625 20.640625 7.9375 19.375 C3.68594447 17.99077262 -1.66047133 17.45523567 -5.75 19.5 C-5.75 20.82 -5.75 22.14 -5.75 23.5 C-4.70658447 23.91511841 -4.70658447 23.91511841 -3.64208984 24.33862305 C-0.46501035 25.61014287 2.70492258 26.89862769 5.875 28.1875 C6.96941406 28.62255859 8.06382812 29.05761719 9.19140625 29.50585938 C16.15054321 32.35277904 21.53210022 34.87613363 26.125 41 C28.26499788 47.65777118 28.57653209 55.41763265 25.75 61.9375 C22.06433759 68.06733853 15.77397014 72.0724086 8.984375 74.02734375 C-2.60456192 76.03057428 -15.15356556 75.21185797 -25.33203125 68.8984375 C-27.22102288 67.50237013 -29.01050756 66.07657925 -30.75 64.5 C-28.68687686 60.83584124 -26.39127824 57.79451872 -23.5625 54.6875 C-22.84707031 53.89730469 -22.13164062 53.10710937 -21.39453125 52.29296875 C-20.85183594 51.70128906 -20.30914062 51.10960937 -19.75 50.5 C-16.56109725 51.73981858 -13.50363763 53.11154998 -10.4375 54.625 C-5.9172804 56.64740209 -2.67141309 57.0091117 2.25 56.5 C3.24 55.84 4.23 55.18 5.25 54.5 C5.12957147 52.5593009 5.12957147 52.5593009 4.25 50.5 C2.06177554 49.10104885 2.06177554 49.10104885 -0.703125 48.09765625 C-1.71503906 47.68193359 -2.72695313 47.26621094 -3.76953125 46.83789062 C-4.83558594 46.41701172 -5.90164063 45.99613281 -7 45.5625 C-19.67850937 40.52998739 -19.67850937 40.52998739 -23.75 35.5 C-24.3275 34.79875 -24.905 34.0975 -25.5 33.375 C-28.68625797 28.59561304 -28.27867908 23.01336758 -27.75 17.5 C-26.02313564 11.40396075 -22.13037528 6.78048061 -16.75 3.5 C-11.18662736 0.84540386 -6.13302822 -0.04981342 0 0 Z " fill="#000000" transform="translate(407.75,54.5)"/>
<path d="M0 0 C0.928125 0.7425 1.85625 1.485 2.8125 2.25 C0.18538552 7.19515667 -3.45395294 11.12775489 -7.1875 15.25 C-12.87345041 13.39876033 -12.87345041 13.39876033 -15.5625 12.125 C-19.29630024 10.88039992 -22.24866165 10.9958814 -26.1875 11.25 C-27.1775 11.91 -28.1675 12.57 -29.1875 13.25 C-29.1875 14.24 -29.1875 15.23 -29.1875 16.25 C-27.06319913 17.16828568 -24.93801677 18.08453222 -22.8125 19 C-21.85718384 19.41378906 -21.85718384 19.41378906 -20.88256836 19.8359375 C-17.20513792 21.41957753 -13.51258737 22.877557 -9.75 24.25 C-4.34498917 26.42800601 0.05344004 29.0788227 2.94140625 34.28515625 C5.63388374 41.13105193 5.04292427 47.55872718 2.75 54.4375 C-1.79818868 61.03970937 -7.44667059 65.20662666 -15.1875 67.25 C-18.28475921 67.66515949 -21.31542818 67.72752249 -24.4375 67.6875 C-25.68430542 67.67614014 -25.68430542 67.67614014 -26.95629883 67.66455078 C-37.68785278 67.37926449 -46.10010088 64.3859404 -54.1875 57.25 C-50.39712911 51.77964787 -46.43722347 47.35037573 -41.1875 43.25 C-40.32125 43.86875 -39.455 44.4875 -38.5625 45.125 C-32.5247166 48.92656733 -27.21499292 49.85436439 -20.1875 49.25 C-19.5275 48.92 -18.8675 48.59 -18.1875 48.25 C-18.36263514 45.80215763 -18.36263514 45.80215763 -19.1875 43.25 C-20.99930607 41.96335222 -20.99930607 41.96335222 -23.34375 41.29296875 C-24.19783447 40.98931396 -25.05191895 40.68565918 -25.93188477 40.37280273 C-26.84123779 40.06415283 -27.75059082 39.75550293 -28.6875 39.4375 C-37.61746101 36.13806717 -45.6608121 32.70405156 -50.25 23.8125 C-52.02945209 17.05058206 -52.09554232 11.35808491 -48.57421875 5.16796875 C-37.18733655 -10.58121199 -15.10559532 -10.58296199 0 0 Z " fill="#000000" transform="translate(112.1875,61.75)"/>
<path d="M0 0 C8.848125 -0.0928125 8.848125 -0.0928125 17.875 -0.1875 C19.71562012 -0.21481201 21.55624023 -0.24212402 23.45263672 -0.27026367 C34.78577218 -0.37005181 44.79168152 -0.25693004 53.37109375 8.0625 C58.13724219 13.73158784 58.51448207 19.88786189 58.26953125 27.109375 C57.64196789 33.83976468 55.78024403 37.59558995 50.875 42.3125 C41.20845593 50.17235772 31.98430154 49.28309374 20 49 C20 56.59 20 64.18 20 72 C13.4 72 6.8 72 0 72 C0 48.24 0 24.48 0 0 Z M20 16 C20 21.94 20 27.88 20 34 C28.36841726 34.0262815 28.36841726 34.0262815 35.875 30.8125 C37.65590647 27.94326181 37.82456912 25.33318673 38 22 C37.21710805 19.36663618 36.60329442 18.39151439 34.30859375 16.90234375 C31.34426081 15.74369585 28.92291366 15.80602362 25.75 15.875 C23.8525 15.91625 21.955 15.9575 20 16 Z " fill="#000000" transform="translate(585,56)"/>
<path d="M0 0 C19.8 0 39.6 0 60 0 C60 5.61 60 11.22 60 17 C53.4 17 46.8 17 40 17 C40 35.15 40 53.3 40 72 C33.4 72 26.8 72 20 72 C20 53.85 20 35.7 20 17 C13.4 17 6.8 17 0 17 C0 11.39 0 5.78 0 0 Z " fill="#000000" transform="translate(133,56)"/>
<path d="M0 0 C6.93 0 13.86 0 21 0 C21 23.76 21 47.52 21 72 C14.07 72 7.14 72 0 72 C0 48.24 0 24.48 0 0 Z " fill="#000000" transform="translate(541,56)"/>
<path d="M0 0 C3.12177233 1.68287927 5.39137035 3.7827407 7 7 C7.52137294 11.82911 7.73402673 15.74166846 5.25 20 C1.08024516 23.70644874 -2.27243502 24.44655834 -7.74609375 24.3203125 C-11.9777892 23.7189277 -14.78448079 21.54702445 -17.375 18.25 C-18.82399408 13.03362133 -18.70053657 9.35103481 -16.25 4.625 C-11.78552544 -0.58355365 -6.57732837 -1.04615774 0 0 Z M-10 5 C-5.545 5.99 -5.545 5.99 -1 7 C-1 9.66666667 -1 12.33333333 -1 15 C-0.67 15.66 -0.34 16.32 0 17 C0.99 16.67 1.98 16.34 3 16 C3.89577032 12.49835238 4.26716699 10.61870251 2.8125 7.25 C0.91011828 4.8884227 -0.13815363 3.92589147 -3 3 C-6.97785332 2.55790536 -6.97785332 2.55790536 -10 5 Z M-12.5625 6.0625 C-14.8276657 9.11554942 -14.50903836 11.30947188 -14 15 C-11.8663311 17.72635471 -10.13961109 19.4658073 -7 20.9375 C-4.30658436 21.02166924 -2.41128054 20.13866026 0 19 C-0.61875 18.9175 -1.2375 18.835 -1.875 18.75 C-4 18 -4 18 -5.25 15.9375 C-5.4975 15.298125 -5.745 14.65875 -6 14 C-6.33 15.32 -6.66 16.64 -7 18 C-7.99 18 -8.98 18 -10 18 C-10 13.71 -10 9.42 -10 5 C-11.17710009 4.90628166 -11.17710009 4.90628166 -12.5625 6.0625 Z M-7 9 C-7 9.66 -7 10.32 -7 11 C-6.01 11 -5.02 11 -4 11 C-4 10.34 -4 9.68 -4 9 C-4.99 9 -5.98 9 -7 9 Z " fill="#000000" transform="translate(672,40)"/>
</svg>
